<svg width="16" height="18" viewBox="0 0 16 18" fill="none" xmlns="http://www.w3.org/2000/svg">
<path d="M2.67676 8.91754C2.67676 6.13829 2.67676 3.35904 2.67676 0.394512C5.47975 0.394512 8.0176 0.283344 10.5554 0.431571C13.2069 0.579797 15.2145 3.02554 15.1387 5.69362C15.0629 8.28759 13.0175 10.548 10.3661 10.6592C8.47214 10.7704 6.6161 10.6963 4.64643 10.6963L2.67676 8.91754ZM4.64643 2.09912C4.64643 4.47075 4.64643 6.69415 4.64643 8.99166C5.13885 9.02872 6.6161 8.99166 6.99488 8.99166C8.05547 8.99166 9.53273 9.02871 10.3661 8.91754C12.1463 8.73226 13.4342 7.21294 13.3963 5.50834C13.3584 3.72962 11.9948 2.21029 10.1388 2.09912C8.35849 2.02501 6.54034 2.09912 4.64643 2.09912Z" fill="#1C62CD"/>
<path d="M8.24571 11.1043C7.67754 11.1043 7.07148 11.1043 6.46543 11.1043C5.85938 11.1043 5.25333 11.1043 4.64728 11.1043V10.3631C5.25333 10.3631 5.85938 10.3631 6.46543 10.3631C7.79117 10.3631 9.07905 10.4002 10.3669 10.3261C12.7911 10.1779 14.7229 8.17681 14.7608 5.69402C14.8365 3.13711 12.9047 0.950759 10.5184 0.802532C8.77601 0.691362 7.03361 0.728416 5.21545 0.765473C4.49577 0.765473 3.77608 0.802532 3.05639 0.802532V8.955H2.29883V0.0613989H2.67761C3.54881 0.0613989 4.38213 0.0613966 5.21545 0.02434C7.07149 -0.0127167 8.81389 -0.0127144 10.5942 0.0613989C13.3972 0.209626 15.5941 2.76654 15.5562 5.69402C15.4804 8.54738 13.2456 10.8819 10.4426 11.0302C9.68508 11.1043 8.9654 11.1043 8.24571 11.1043ZM8.24571 9.36262C7.86693 9.36262 7.45027 9.36262 6.99574 9.36262C6.84422 9.36262 6.54121 9.36262 6.2003 9.36262C5.59425 9.36262 4.91244 9.36262 4.60941 9.36262L4.2685 9.32556V1.69189H4.64728C5.25333 1.69189 5.82152 1.69189 6.38969 1.69189C7.67755 1.69189 8.92753 1.65484 10.1775 1.72895C12.1851 1.84012 13.7759 3.50767 13.8138 5.50873C13.8517 7.43568 12.3366 9.10322 10.4426 9.2885C9.95023 9.36262 9.19267 9.36262 8.24571 9.36262ZM6.84421 8.62149C6.91997 8.62149 6.95786 8.62149 6.99574 8.62149C8.58662 8.65855 9.68508 8.62149 10.329 8.58443C11.8441 8.4362 13.0563 7.10216 13.0184 5.54578C13.0184 3.91529 11.7305 2.58125 10.1018 2.50714C8.88965 2.43303 7.67755 2.47008 6.38969 2.47008C5.93515 2.47008 5.4806 2.47008 5.02606 2.47008V8.62149C5.36697 8.62149 5.82152 8.62149 6.2003 8.62149C6.46545 8.62149 6.6927 8.62149 6.84421 8.62149Z" fill="#1C62CD"/>
<path d="M5.32865 8.99219H0.972656V10.7338H5.32865V8.99219Z" fill="#1C62CD"/>
<path d="M5.6702 11.0668H0.556641V8.58398H5.6702V11.0668ZM1.35207 10.3257H4.9505V9.32512H1.35207V10.3257Z" fill="#1C62CD"/>
<path d="M8.85134 12.4375H0.972656V14.1792H8.85134V12.4375Z" fill="#1C62CD"/>
<path d="M9.23 14.5502H0.59375V12.0674H9.23V14.5502ZM1.35131 13.8091H8.47244V12.8085H1.35131V13.8091Z" fill="#1C62CD"/>
<path d="M4.64643 7.91699H2.67676V17.6258H4.64643V7.91699Z" fill="#1C62CD"/>
<path d="M5.02606 17.9968H2.29883V7.54688H5.02606V17.9968ZM3.05639 17.2557H4.2685V8.28801H3.05639V17.2557Z" fill="#1C62CD"/>
</svg>
